  0
SECTION
  2
ENTITIES
  0
LWPOLYLINE
  8
controllo orientamento
 90
        2
 70
     0
 10
232258.62
 20
4683214.61
 10
232258.62
 20
4683213.51
  0
LWPOLYLINE
  8
controllo orientamento
 90
        2
 70
     0
 10
232258.04
 20
4683214.05
 10
232259.13
 20
4683214.05
  0
POINT
  8
controllo orientamento
 10
232258.64
 20
4683214.04
  0
LWPOLYLINE
  8
termine particellare
 90
        2
 70
     0
 10
232260.16
 20
4683214.06
 10
232261.91
 20
4683214.06
  0
POINT
  8
termine particellare
 10
232262.01
 20
4683214.06
  0
LWPOLYLINE
  8
termine particellare
 90
        9
 70
     0
 10
232261.91
 20
4683214.06
 10
232261.99
 20
4683214.39
 10
232262.23
 20
4683214.60
 10
232262.12
 20
4683214.27
 10
232262.08
 20
4683214.06
 10
232262.15
 20
4683213.82
 10
232262.24
 20
4683213.61
 10
232261.97
 20
4683213.80
 10
232261.90
 20
4683214.06
  0
LWPOLYLINE
  8
parametro
 90
        3
 70
     0
 10
232252.22
 20
4683211.83
 10
232252.83
 20
4683213.32
 10
232253.23
 20
4683211.81
  0
LWPOLYLINE
  8
parametro
 90
        2
 70
     0
 10
232252.54
 20
4683212.45
 10
232253.14
 20
4683212.43
  0
LWPOLYLINE
  8
parametro
 90
        7
 70
     0
 10
232252.82
 20
4683213.32
 10
232252.73
 20
4683213.35
 10
232252.74
 20
4683213.44
 10
232252.83
 20
4683213.51
 10
232252.91
 20
4683213.45
 10
232252.93
 20
4683213.36
 10
232252.84
 20
4683213.32
  0
POINT
  8
parametro
 10
232252.73
 20
4683211.86
  0
LWPOLYLINE
  8
osso di morto
 90
        3
 70
     0
 10
232254.73
 20
4683214.66
 10
232255.14
 20
4683214.10
 10
232254.68
 20
4683213.61
  0
LWPOLYLINE
  8
osso di morto
 90
        2
 70
     0
 10
232255.14
 20
4683214.09
 10
232256.63
 20
4683214.09
  0
LWPOLYLINE
  8
osso di morto
 90
        3
 70
     0
 10
232257.03
 20
4683214.64
 10
232256.63
 20
4683214.09
 10
232257.01
 20
4683213.51
  0
POINT
  8
osso di morto
 10
232255.89
 20
4683214.08
  0
LWPOLYLINE
  8
grande flusso
 90
        2
 70
     0
 10
232254.51
 20
4683212.39
 10
232262.90
 20
4683212.35
  0
LWPOLYLINE
  8
grande flusso
 90
        3
 70
     0
 10
232261.30
 20
4683213.52
 10
232262.87
 20
4683212.35
 10
232261.25
 20
4683211.44
  0
POINT
  8
grande flusso
 10
232254.52
 20
4683212.38
  0
LWPOLYLINE
  8
medio flusso
 90
        2
 70
     0
 10
232254.51
 20
4683210.37
 10
232259.72
 20
4683210.39
  0
LWPOLYLINE
  8
medio flusso
 90
        3
 70
     0
 10
232258.82
 20
4683210.97
 10
232259.71
 20
4683210.40
 10
232258.83
 20
4683209.85
  0
POINT
  8
medio flusso
 10
232254.52
 20
4683210.33
  0
LWPOLYLINE
  8
piccolo flusso
 90
        2
 70
     0
 10
232254.55
 20
4683208.92
 10
232257.09
 20
4683208.90
  0
LWPOLYLINE
  8
piccolo flusso
 90
        3
 70
     0
 10
232256.69
 20
4683209.11
 10
232257.09
 20
4683208.90
 10
232256.71
 20
4683208.71
  0
POINT
  8
piccolo flusso
 10
232254.55
 20
4683208.89
  0
LWPOLYLINE
  8
fiduciale trigonometrico
 90
        4
 70
     0
 10
232260.44
 20
4683208.75
 10
232261.76
 20
4683211.09
 10
232262.74
 20
4683208.69
 10
232260.47
 20
4683208.72
  0
LWPOLYLINE
  8
fiduciale trigonometrico
 90
        4
 70
     0
 10
232261.48
 20
4683209.63
 10
232261.71
 20
4683209.27
 10
232261.92
 20
4683209.63
 10
232261.46
 20
4683209.63
  0
POINT
  8
fiduciale trigonometrico
 10
232261.74
 20
4683209.48
  0
LWPOLYLINE
  8
graffa annessione
 90
       13
 70
     0
 10
232251.82
 20
4683214.12
 10
232251.98
 20
4683214.37
 10
232252.19
 20
4683214.52
 10
232252.50
 20
4683214.61
 10
232252.75
 20
4683214.51
 10
232252.90
 20
4683214.33
 10
232253.02
 20
4683214.13
 10
232253.13
 20
4683213.98
 10
232253.28
 20
4683213.84
 10
232253.45
 20
4683213.76
 10
232253.68
 20
4683213.81
 10
232253.87
 20
4683213.94
 10
232254.08
 20
4683214.17
  0
POINT
  8
graffa annessione
 10
232253.02
 20
4683214.12
  0
LWPOLYLINE
  8
ancora
 90
        2
 70
     0
 10
232252.82
 20
4683211.02
 10
232252.80
 20
4683208.78
  0
LWPOLYLINE
  8
ancora
 90
        2
 70
     0
 10
232252.55
 20
4683210.75
 10
232253.05
 20
4683210.75
  0
LWPOLYLINE
  8
ancora
 90
        7
 70
     0
 10
232251.86
 20
4683209.65
 10
232252.04
 20
4683209.07
 10
232252.10
 20
4683209.21
 10
232252.82
 20
4683208.69
 10
232253.45
 20
4683209.16
 10
232253.48
 20
4683208.98
 10
232253.84
 20
4683209.47
  0
POINT
  8
ancora
 10
232252.84
 20
4683210.72
  0
LWPOLYLINE
  8
ancora
 90
        7
 70
     0
 10
232252.68
 20
4683210.76
 10
232252.72
 20
4683210.85
 10
232252.89
 20
4683210.86
 10
232252.93
 20
4683210.77
 10
232252.89
 20
4683210.63
 10
232252.74
 20
4683210.64
 10
232252.68
 20
4683210.76
  0
LWPOLYLINE
  8
termine provinciale
 90
        2
 70
     0
 10
232251.79
 20
4683207.40
 10
232255.31
 20
4683207.37
  0
POINT
  8
termine provinciale
 10
232254.59
 20
4683207.36
  0
LWPOLYLINE
  8
termine provinciale
 90
        5
 70
     1
 10
232253.65
 20
4683207.38
 10
232254.51
 20
4683208.47
 10
232255.31
 20
4683207.36
 10
232254.46
 20
4683206.22
 10
232253.65
 20
4683207.38
  0
LWPOLYLINE
  8
croce su roccia
 90
        2
 70
     0
 10
232257.29
 20
4683206.73
 10
232260.01
 20
4683206.73
  0
LWPOLYLINE
  8
croce su roccia
 90
        2
 70
     0
 10
232257.33
 20
4683207.02
 10
232259.99
 20
4683207.00
  0
POINT
  8
croce su roccia
 10
232258.74
 20
4683206.86
  0
LWPOLYLINE
  8
croce su roccia
 90
       12
 70
     0
 10
232257.40
 20
4683207.38
 10
232257.71
 20
4683207.66
 10
232257.94
 20
4683207.80
 10
232258.14
 20
4683207.85
 10
232258.43
 20
4683207.75
 10
232258.64
 20
4683207.48
 10
232258.78
 20
4683207.31
 10
232259.11
 20
4683207.20
 10
232259.36
 20
4683207.25
 10
232259.56
 20
4683207.33
 10
232259.78
 20
4683207.45
 10
232259.90
 20
4683207.53
  0
POINT
  8
graffa grande
 10
232256.41
 20
4683205.02
  0
LWPOLYLINE
  8
graffa grande
 90
       12
 70
     0
 10
232255.46
 20
4683205.04
 10
232255.61
 20
4683205.20
 10
232255.82
 20
4683205.30
 10
232255.95
 20
4683205.32
 10
232256.16
 20
4683205.26
 10
232256.32
 20
4683205.10
 10
232256.43
 20
4683205.00
 10
232256.61
 20
4683204.87
 10
232256.84
 20
4683204.79
 10
232257.00
 20
4683204.84
 10
232257.16
 20
4683204.95
 10
232257.21
 20
4683205.02
  0
LWPOLYLINE
  8
baffettatura piccola
 90
        2
 70
     0
 10
232253.00
 20
4683204.13
 10
232252.11
 20
4683200.91
  0
LWPOLYLINE
  8
baffettatura piccola
 90
        2
 70
     0
 10
232253.41
 20
4683204.06
 10
232252.57
 20
4683200.94
  0
POINT
  8
baffettatura piccola
 10
232252.73
 20
4683202.32
  0
LWPOLYLINE
  8
baffettatura grande
 90
        2
 70
     0
 10
232261.84
 20
4683206.19
 10
232259.89
 20
4683199.96
  0
LWPOLYLINE
  8
baffettatura grande
 90
        2
 70
     0
 10
232262.33
 20
4683206.12
 10
232260.48
 20
4683199.94
  0
POINT
  8
baffettatura grande
 10
232261.03
 20
4683202.69
  0
LWPOLYLINE
  8
fiduciale semplice
 90
        5
 70
     0
 10
232256.03
 20
4683202.56
 10
232255.99
 20
4683201.63
 10
232257.05
 20
4683201.59
 10
232257.11
 20
4683202.54
 10
232256.10
 20
4683202.56
  0
POINT
  8
fiduciale semplice
 10
232256.58
 20
4683202.01
  0
LWPOLYLINE
  8
fiduciale semplice
 90
       19
 70
     0
 10
232254.66
 20
4683202.14
 10
232254.78
 20
4683202.61
 10
232255.06
 20
4683203.00
 10
232255.65
 20
4683203.43
 10
232256.27
 20
4683203.65
 10
232256.70
 20
4683203.67
 10
232257.24
 20
4683203.53
 10
232257.77
 20
4683203.16
 10
232258.22
 20
4683202.51
 10
232258.31
 20
4683201.91
 10
232258.26
 20
4683201.51
 10
232257.87
 20
4683200.77
 10
232257.20
 20
4683200.35
 10
232256.42
 20
4683200.25
 10
232255.67
 20
4683200.35
 10
232255.15
 20
4683200.67
 10
232254.80
 20
4683201.07
 10
232254.66
 20
4683201.59
 10
232254.68
 20
4683202.11
  0
LWPOLYLINE
  8
Cassonetto
 90
        5
 70
     1
 10
232267.66
 20
4683211.08
 10
232266.99
 20
4683209.13
 10
232266.04
 20
4683209.13
 10
232265.57
 20
4683211.06
 10
232267.66
 20
4683211.08
  0
LWPOLYLINE
  8
Cassonetto
 90
        5
 70
     1
 10
232267.23
 20
4683209.14
 10
232269.13
 20
4683209.86
 10
232269.65
 20
4683211.40
 10
232267.83
 20
4683211.06
 10
232267.23
 20
4683209.14
  0
LWPOLYLINE
  8
Cassonetto
 90
        4
 70
     1
 10
232267.84
 20
4683211.21
 10
232269.70
 20
4683211.61
 10
232267.63
 20
4683211.71
 10
232265.67
 20
4683211.20
  0
LWPOLYLINE
  8
Cassonetto
 90
        5
 70
     1
 10
232266.85
 20
4683208.98
 10
232267.10
 20
4683209.15
 10
232267.26
 20
4683209.00
 10
232267.06
 20
4683208.84
 10
232266.85
 20
4683208.98
  0
LWPOLYLINE
  8
Cassonetto
 90
        5
 70
     1
 10
232265.91
 20
4683209.03
 10
232266.08
 20
4683209.17
 10
232266.18
 20
4683209.05
 10
232266.06
 20
4683208.93
 10
232265.91
 20
4683209.03
  0
LWPOLYLINE
  8
Cassonetto
 90
        5
 70
     1
 10
232268.91
 20
4683209.69
 10
232269.05
 20
4683209.82
 10
232269.18
 20
4683209.74
 10
232269.07
 20
4683209.62
 10
232268.91
 20
4683209.69
  0
POINT
  8
Cassonetto
 10
232267.69
 20
4683209.64
  0
LWPOLYLINE
  8
Campana
 90
       13
 70
     1
 10
232270.48
 20
4683209.08
 10
232271.16
 20
4683208.76
 10
232271.99
 20
4683208.61
 10
232272.71
 20
4683208.65
 10
232273.22
 20
4683208.87
 10
232273.47
 20
4683209.12
 10
232273.27
 20
4683211.41
 10
232272.82
 20
4683211.82
 10
232272.25
 20
4683212.00
 10
232271.54
 20
4683211.95
 10
232271.15
 20
4683211.76
 10
232270.78
 20
4683211.44
 10
232270.48
 20
4683209.08
  0
LWPOLYLINE
  8
Campana
 90
        8
 70
     1
 10
232272.26
 20
4683211.41
 10
232272.34
 20
4683211.52
 10
232272.55
 20
4683211.59
 10
232272.78
 20
4683211.51
 10
232272.87
 20
4683211.33
 10
232272.78
 20
4683211.15
 10
232272.45
 20
4683211.11
 10
232272.25
 20
4683211.23
  0
POINT
  8
Campana
 10
232272.10
 20
4683209.20
  0
ENDSEC
  0
EOF
